<svg width="50" height="50" viewBox="0 0 50 50" fill="none" xmlns="http://www.w3.org/2000/svg">
<rect opacity="0.08" width="50" height="50" rx="3" fill="#13C296"/>
<path d="M33.5479 28.6952C34.2972 28.4391 34.9241 27.9316 35.326 27.2599C35.7495 26.5462 35.8769 25.7086 35.6866 24.9047C35.551 24.3393 35.6949 23.8125 36.1018 23.3872C36.6824 22.7847 37 21.997 37 21.1722C37 20.3474 36.6824 19.5596 36.1018 18.9571C35.6916 18.5319 35.5477 18.0083 35.6866 17.4396C35.8769 16.6358 35.7495 15.7981 35.326 15.0845C34.9026 14.3708 34.2211 13.8424 33.4123 13.604C32.8399 13.4349 32.4463 13.0515 32.2726 12.4941C32.0278 11.7015 31.4852 11.0427 30.7525 10.6303C30.0197 10.2179 29.1596 10.0938 28.3342 10.2791C27.7536 10.4112 27.2127 10.271 26.776 9.87474C26.1574 9.3093 25.3486 9 24.5017 9C23.6548 9 22.8459 9.3093 22.2273 9.87474C21.7906 10.2743 21.253 10.4144 20.6691 10.2823C19.8437 10.097 18.9836 10.2211 18.2508 10.6335C17.5181 11.0459 16.9755 11.7096 16.7307 12.4973C16.557 13.0547 16.1634 13.4381 15.591 13.6073C14.7772 13.8457 14.1007 14.3741 13.6773 15.0877C13.2538 15.8013 13.1264 16.639 13.3167 17.4429C13.4523 18.0083 13.3084 18.5351 12.8982 18.9604C12.3176 19.5628 12 20.3506 12 21.1754C12 22.0002 12.3176 22.788 12.8982 23.3904C13.3084 23.8157 13.4523 24.3393 13.3167 24.9079C13.1264 25.7118 13.2538 26.5495 13.6773 27.2631C14.0759 27.9349 14.7061 28.4423 15.4554 28.6985L12.6567 38.8732C12.5806 39.1535 12.6616 39.4547 12.8733 39.6609C13.0851 39.8671 13.3894 39.9493 13.6772 39.8752L17.8439 38.8281L20.9189 41.7648C21.0793 41.9178 21.291 42 21.5077 42C21.5805 42 21.6566 41.9919 21.7277 41.971C22.0155 41.8921 22.2405 41.6746 22.3165 41.3943L24.5016 33.4474L26.6867 41.3943C26.7628 41.6746 26.9878 41.8937 27.2756 41.971C27.3483 41.9919 27.4244 42 27.4956 42C27.7122 42 27.924 41.9178 28.0844 41.7648L31.1594 38.8281L35.326 39.8752C35.6139 39.9493 35.9232 39.8671 36.1299 39.6609C36.3416 39.4547 36.4227 39.1535 36.3466 38.8732L33.5479 28.6985L33.5479 28.6952ZM15.1329 26.4432C14.9212 26.0888 14.8583 25.6715 14.9543 25.2769C15.2173 24.1847 14.9162 23.0908 14.1289 22.2741C13.8411 21.9777 13.6839 21.5846 13.6839 21.177C13.6839 20.7695 13.8411 20.3764 14.1289 20.08C14.9162 19.2632 15.2173 18.1662 14.9543 17.0772C14.8567 16.6777 14.9212 16.2653 15.1329 15.9109C15.3446 15.5565 15.6788 15.2971 16.0807 15.1763C17.1824 14.8509 18.0028 14.0503 18.3369 12.979C18.4593 12.5876 18.7273 12.2573 19.0912 12.056C19.4551 11.8498 19.8785 11.7886 20.2887 11.882C21.4102 12.1381 22.5333 11.8449 23.3719 11.0781C23.6763 10.7978 24.0799 10.6448 24.4984 10.6448C24.9169 10.6448 25.3205 10.7978 25.6249 11.0781C26.4635 11.845 27.5899 12.1381 28.7081 11.882C29.1183 11.7869 29.5418 11.8498 29.9056 12.056C30.2695 12.2622 30.5359 12.5876 30.6599 12.979C30.994 14.0519 31.8161 14.851 32.9161 15.1763C33.318 15.2956 33.6571 15.5565 33.8639 15.9109C34.0706 16.2653 34.1385 16.6826 34.0425 17.0772C33.7795 18.1694 34.0806 19.2633 34.8679 20.08C35.1557 20.3764 35.3129 20.7695 35.3129 21.177C35.3129 21.5846 35.1557 21.9777 34.8679 22.2741C34.0805 23.0909 33.7795 24.1879 34.0425 25.2769C34.1401 25.6764 34.0756 26.0888 33.8639 26.4432C33.6522 26.7976 33.318 27.0569 32.9161 27.1777C31.8144 27.5031 30.994 28.3038 30.6599 29.375C30.5375 29.7665 30.2695 30.0967 29.9056 30.2981C29.5417 30.5043 29.1133 30.5655 28.7081 30.4721C27.5866 30.216 26.4635 30.5091 25.6249 31.2759C25.3205 31.5563 24.9169 31.7093 24.4984 31.7093C24.0799 31.7093 23.6763 31.5563 23.3719 31.2759C22.7318 30.6896 21.9229 30.3803 21.076 30.3803C20.813 30.3803 20.5517 30.4093 20.2837 30.4705C19.8735 30.5607 19.45 30.5027 19.0862 30.2965C18.7223 30.0903 18.4559 29.7649 18.3319 29.3734C17.9978 28.3005 17.1757 27.5015 16.0757 27.1761C15.6738 27.0569 15.3347 26.7959 15.1279 26.4415L15.1329 26.4432ZM21.0697 39.6156L18.6861 37.3346C18.4744 37.1332 18.1734 37.0542 17.8905 37.1284L14.6551 37.9403L16.8187 30.0725C17.0899 30.762 17.5928 31.3387 18.2577 31.7141C18.9905 32.1265 19.8506 32.2505 20.676 32.0653C21.2566 31.9332 21.7975 32.0733 22.2342 32.4696C22.4409 32.6549 22.6659 32.816 22.9074 32.9432L21.0746 39.6125L21.0697 39.6156ZM31.1215 37.1284C30.837 37.0575 30.5327 37.1364 30.3259 37.3346L27.9424 39.6156L26.1096 32.9463C26.3511 32.819 26.5794 32.6579 26.7828 32.4727C27.2195 32.0732 27.7571 31.933 28.341 32.0683C29.1664 32.2536 30.0265 32.1296 30.7593 31.7172C31.4242 31.3467 31.9287 30.7683 32.1983 30.0756L34.3619 37.9434L31.1265 37.1314L31.1215 37.1284ZM17.348 20.3487L20.5784 23.0615L19.6042 27.1065C19.5281 27.4287 19.6554 27.7621 19.9267 27.9523C20.0756 28.0554 20.2443 28.1085 20.418 28.1085C20.5669 28.1085 20.719 28.0715 20.8547 27.9893L24.5053 25.8371L28.1559 27.9893C28.4437 28.1585 28.8076 28.1456 29.0838 27.9523C29.3551 27.759 29.4858 27.4239 29.4064 27.1065L28.4321 23.0615L31.6625 20.3487C31.9173 20.1344 32.0182 19.7913 31.9123 19.4787C31.8065 19.1646 31.5219 18.9471 31.1845 18.9181L26.9335 18.5718L25.2827 14.741C25.152 14.4397 24.846 14.2416 24.5086 14.2416C24.1695 14.2416 23.8652 14.4397 23.7345 14.741L22.0837 18.5718L17.8327 18.9181C17.4986 18.9471 17.2107 19.1662 17.1049 19.4787C16.999 19.7929 17.0999 20.1344 17.3546 20.3487L17.348 20.3487ZM22.7254 20.1537C23.0347 20.1296 23.306 19.9346 23.4284 19.6544L24.5036 17.159L25.5787 19.6544C25.7011 19.9347 25.9724 20.1247 26.2818 20.1537L29.0507 20.3809L26.9467 22.1497C26.7102 22.3478 26.6076 22.6572 26.6804 22.9535L27.3156 25.589L24.9403 24.1875C24.6739 24.0313 24.3382 24.0313 24.0718 24.1875L21.6965 25.589L22.3317 22.9535C22.4045 22.6571 22.2986 22.3478 22.0654 22.1497L19.9614 20.3809L22.7304 20.1537H22.7254Z" fill="#09A47D"/>
</svg>
