<svg width="135" height="134" viewBox="0 0 135 134" fill="none" xmlns="http://www.w3.org/2000/svg">
<path d="M134.95 67.0059C134.95 30.0028 104.953 0.00585938 67.9497 0.00585938C30.9466 0.00585938 0.949707 30.0028 0.949707 67.0059C0.949707 104.009 30.9466 134.006 67.9497 134.006C104.953 134.006 134.95 104.009 134.95 67.0059Z" fill="#7854F7" fill-opacity="0.14"/>
<path d="M11.6885 86.4389C12.5138 86.0383 13.315 85.8569 14.0921 85.8947C14.8789 85.9278 15.5846 86.1604 16.2092 86.5923C16.8435 87.0196 17.3469 87.6171 17.7195 88.3848C18.1992 89.3732 18.3456 90.3099 18.1587 91.1951C17.986 92.0851 17.507 92.8571 16.7217 93.5109L15.6667 91.3374C15.9563 91.0546 16.1295 90.7275 16.1863 90.356C16.2575 89.9895 16.1952 89.6048 15.9996 89.2017C15.7201 88.626 15.2878 88.2726 14.7025 88.1417C14.1269 88.0061 13.4552 88.1246 12.6875 88.4972C11.9294 88.8652 11.4208 89.3195 11.1616 89.8603C10.912 90.3965 10.9269 90.9524 11.2063 91.5282C11.6022 92.3439 12.2254 92.6994 13.0758 92.595L14.1307 94.7685C13.1599 94.967 12.2619 94.8633 11.4366 94.4577C10.6113 94.052 9.96109 93.3597 9.48602 92.3809C9.11342 91.6132 8.95067 90.8504 8.99776 90.0924C9.05445 89.3298 9.30837 88.6315 9.7595 87.9976C10.2202 87.359 10.8632 86.8394 11.6885 86.4389Z" fill="#303030"/>
<path d="M23.4742 93.0833L13.4484 99.3816L12.2568 97.4848L22.2826 91.1865L23.4742 93.0833Z" fill="#303030"/>
<path d="M23.3652 96.2672C23.132 95.9488 23.0357 95.6095 23.0761 95.2494C23.1315 94.8916 23.3097 94.6024 23.611 94.3819C23.9122 94.1614 24.2374 94.0819 24.5866 94.1436C24.9507 94.2075 25.2493 94.3987 25.4824 94.7172C25.7156 95.0357 25.8045 95.3738 25.7491 95.7316C25.7087 96.0916 25.5378 96.382 25.2366 96.6025C24.9354 96.823 24.6027 96.9013 24.2386 96.8373C23.8894 96.7757 23.5983 96.5857 23.3652 96.2672ZM23.1652 97.7818L16.0129 103.018L14.6898 101.21L21.842 95.9744L23.1652 97.7818Z" fill="#303030"/>
<path d="M26.3655 107.736C26.1282 107.951 25.9004 108.129 25.6819 108.269L21.3337 103.464C20.895 103.933 20.6736 104.436 20.6695 104.972C20.6654 105.508 20.8567 105.989 21.2432 106.416C21.8015 107.033 22.4636 107.232 23.2297 107.014L24.8509 108.805C24.0464 109.188 23.1952 109.296 22.2973 109.131C21.4072 108.958 20.6079 108.48 19.8993 107.697C19.3267 107.065 18.9497 106.37 18.7684 105.613C18.6022 104.857 18.6473 104.104 18.9037 103.354C19.1672 102.612 19.6351 101.937 20.3074 101.329C20.9875 100.713 21.7099 100.311 22.4744 100.123C23.239 99.9343 23.9852 99.964 24.7129 100.212C25.4406 100.459 26.098 100.908 26.6849 101.556C27.2503 102.181 27.6205 102.86 27.7954 103.594C27.9774 104.335 27.941 105.066 27.6861 105.786C27.4463 106.506 27.0061 107.157 26.3655 107.736ZM25.2832 105.587C25.7031 105.192 25.9036 104.73 25.8847 104.201C25.8737 103.664 25.6714 103.178 25.2777 102.743C24.9055 102.332 24.464 102.099 23.9533 102.043C23.4576 101.988 22.9597 102.129 22.4595 102.467L25.2832 105.587Z" fill="#303030"/>
<path d="M33.6071 107.982C34.4303 108.644 34.8851 109.44 34.9715 110.371C35.0645 111.294 34.7369 112.222 33.9887 113.153L30.7318 117.207L28.9856 115.804L32.052 111.987C32.493 111.438 32.6931 110.908 32.6525 110.396C32.6186 109.877 32.3647 109.426 31.8907 109.046C31.4084 108.658 30.9057 108.5 30.3824 108.573C29.8742 108.643 29.3996 108.953 28.9587 109.502L25.8923 113.318L24.146 111.916L29.6977 105.005L31.4439 106.408L30.7525 107.269C31.2258 107.157 31.7081 107.161 32.1992 107.282C32.7054 107.401 33.1747 107.635 33.6071 107.982Z" fill="#303030"/>
<path d="M38.3447 113.773L36.1137 117.435C35.9583 117.69 35.9037 117.913 35.95 118.103C36.0109 118.29 36.1871 118.473 36.4786 118.65L37.3668 119.191L36.3845 120.804L35.1821 120.071C33.5697 119.089 33.2408 117.814 34.1954 116.247L36.4181 112.599L35.5163 112.05L36.4736 110.478L37.3754 111.028L38.5159 109.156L40.4425 110.33L39.302 112.202L40.9963 113.234L40.039 114.805L38.3447 113.773Z" fill="#303030"/>
<path d="M47.2334 120.683C47.1021 120.975 46.9645 121.229 46.8205 121.445L40.9111 118.786C40.6972 119.391 40.6957 119.94 40.9068 120.433C41.1179 120.926 41.4861 121.29 42.0114 121.527C42.7702 121.868 43.4566 121.785 44.0709 121.278L46.2741 122.269C45.6905 122.942 44.9542 123.383 44.0652 123.591C43.1805 123.79 42.2567 123.672 41.2936 123.239C40.5155 122.889 39.8917 122.403 39.4223 121.783C38.967 121.157 38.7066 120.449 38.6409 119.659C38.5849 118.874 38.7429 118.068 39.1149 117.241C39.4913 116.404 39.992 115.746 40.6169 115.267C41.2419 114.788 41.9374 114.516 42.7034 114.452C43.4694 114.387 44.2512 114.534 45.0488 114.893C45.8173 115.239 46.4287 115.712 46.883 116.315C47.347 116.921 47.6065 117.605 47.6615 118.367C47.7306 119.123 47.5879 119.895 47.2334 120.683ZM45.3803 119.147C45.6069 118.618 45.6054 118.114 45.3758 117.637C45.1506 117.149 44.7705 116.785 44.2355 116.544C43.7297 116.317 43.2316 116.28 42.7414 116.434C42.2653 116.582 41.8657 116.911 41.5428 117.421L45.3803 119.147Z" fill="#303030"/>
<path d="M50.0925 126.489C49.3952 126.289 48.8048 125.987 48.3215 125.582C47.8411 125.167 47.4985 124.698 47.2936 124.173C47.099 123.651 47.0612 123.125 47.1801 122.593L49.349 123.214C49.2961 123.553 49.3773 123.871 49.5925 124.165C49.818 124.463 50.141 124.672 50.5614 124.792C50.9716 124.91 51.313 124.919 51.5856 124.819C51.8684 124.722 52.0465 124.546 52.1199 124.29C52.1992 124.013 52.1143 123.767 51.8653 123.551C51.6295 123.328 51.2275 123.047 50.6591 122.706C50.0674 122.371 49.5899 122.062 49.2267 121.781C48.8737 121.502 48.5969 121.151 48.3964 120.727C48.2061 120.307 48.1932 119.809 48.3576 119.235C48.4926 118.763 48.7492 118.371 49.1274 118.057C49.5158 117.747 49.9935 117.551 50.5606 117.469C51.1379 117.39 51.7701 117.449 52.4572 117.646C53.4724 117.937 54.2092 118.425 54.6674 119.111C55.1286 119.786 55.2667 120.564 55.0817 121.443L53.0205 120.853C53.0866 120.506 53.0193 120.198 52.8187 119.93C52.6313 119.654 52.3274 119.456 51.9069 119.336C51.5172 119.224 51.1942 119.209 50.9377 119.291C50.6915 119.376 50.5317 119.547 50.4584 119.803C50.3762 120.09 50.4566 120.352 50.6997 120.588C50.9458 120.814 51.3493 121.09 51.9103 121.417C52.4816 121.747 52.9437 122.051 53.2967 122.33C53.6496 122.608 53.9198 122.963 54.1071 123.394C54.3076 123.817 54.3323 124.313 54.1811 124.88C54.0402 125.372 53.7756 125.773 53.3871 126.084C53.009 126.397 52.5312 126.593 51.9539 126.672C51.3898 126.743 50.7693 126.682 50.0925 126.489Z" fill="#303030"/>
<path d="M62.0572 121.123C62.3938 120.687 62.8045 120.361 63.2891 120.145C63.7843 119.93 64.3288 119.855 64.9227 119.919L64.6707 122.257L64.0821 122.194C63.3821 122.118 62.8342 122.226 62.4382 122.516C62.0528 122.807 61.8161 123.36 61.7281 124.177L61.2549 128.568L59.0278 128.328L59.9775 119.515L62.2046 119.755L62.0572 121.123Z" fill="#303030"/>
<path d="M73.6105 124.096C73.6167 124.416 73.601 124.705 73.5634 124.961L67.0846 125.088C67.1504 125.727 67.3842 126.224 67.7859 126.579C68.1875 126.934 68.6763 127.105 69.2522 127.094C70.084 127.078 70.669 126.709 71.0069 125.988L73.4225 125.94C73.1832 126.799 72.7064 127.512 71.992 128.081C71.2774 128.639 70.3923 128.928 69.3365 128.949C68.4833 128.965 67.7118 128.794 67.022 128.434C66.3426 128.063 65.8042 127.535 65.4067 126.849C65.0199 126.163 64.8176 125.367 64.7999 124.461C64.782 123.543 64.9529 122.735 65.3126 122.034C65.6723 121.334 66.1844 120.79 66.849 120.404C67.5136 120.017 68.2831 119.816 69.1576 119.799C70.0001 119.782 70.7555 119.949 71.4238 120.298C72.1028 120.648 72.6301 121.155 73.0058 121.82C73.392 122.474 73.5936 123.232 73.6105 124.096ZM71.2784 123.502C71.2565 122.926 71.0395 122.472 70.6276 122.138C70.2155 121.794 69.7161 121.628 69.1296 121.639C68.575 121.65 68.1091 121.83 67.7319 122.179C67.3651 122.517 67.1448 122.985 67.0712 123.584L71.2784 123.502Z" fill="#303030"/>
<path d="M73.945 124.223C73.7851 123.341 73.8165 122.528 74.0391 121.783C74.2723 121.036 74.6547 120.424 75.1863 119.949C75.7284 119.471 76.3721 119.164 77.1172 119.029C77.768 118.911 78.3585 118.94 78.8889 119.115C79.4298 119.288 79.8833 119.547 80.2495 119.892L80.024 118.649L82.2438 118.246L83.8253 126.968L81.6055 127.37L81.3743 126.095C81.1651 126.556 80.8334 126.968 80.3791 127.333C79.9334 127.684 79.3852 127.919 78.7344 128.037C77.9998 128.171 77.2938 128.103 76.6165 127.836C75.9498 127.567 75.3761 127.123 74.8956 126.506C74.4236 125.876 74.1067 125.115 73.945 124.223ZM80.8147 123.009C80.7177 122.474 80.5299 122.037 80.2515 121.697C79.9712 121.347 79.6345 121.104 79.2415 120.969C78.8466 120.824 78.4445 120.789 78.0351 120.863C77.6258 120.937 77.2661 121.105 76.9559 121.368C76.6457 121.63 76.4156 121.975 76.2656 122.403C76.1242 122.819 76.1011 123.29 76.1963 123.814C76.2914 124.339 76.4801 124.782 76.7623 125.143C77.0532 125.491 77.3908 125.739 77.7752 125.886C78.1701 126.031 78.567 126.068 78.9658 125.995C79.3751 125.921 79.7401 125.752 80.0608 125.488C80.3796 125.213 80.6097 124.868 80.7511 124.452C80.8906 124.026 80.9118 123.545 80.8147 123.009Z" fill="#303030"/>
<path d="M83.9089 122.42C83.6051 121.555 83.5164 120.738 83.6426 119.97C83.7653 119.192 84.0769 118.518 84.5773 117.946C85.0742 117.365 85.7252 116.933 86.5304 116.651C87.5671 116.287 88.5144 116.248 89.3724 116.535C90.237 116.808 90.9492 117.372 91.5092 118.227L89.2295 119.027C88.9816 118.707 88.6763 118.498 88.3138 118.399C87.9578 118.286 87.5685 118.304 87.1457 118.453C86.5418 118.664 86.1415 119.054 85.9446 119.62C85.7442 120.177 85.7853 120.857 86.0678 121.663C86.3468 122.458 86.7402 123.015 87.2478 123.334C87.752 123.643 88.306 123.692 88.9099 123.48C89.7654 123.18 90.1898 122.601 90.1831 121.745L92.4628 120.945C92.5492 121.932 92.3438 122.812 91.8465 123.586C91.3493 124.359 90.5874 124.926 89.5607 125.286C88.7555 125.569 87.9791 125.644 87.2315 125.51C86.4803 125.367 85.8156 125.035 85.2372 124.514C84.6554 123.984 84.2126 123.286 83.9089 122.42Z" fill="#303030"/>
<path d="M94.1534 115.651L96.0598 119.492C96.1925 119.76 96.3519 119.925 96.5377 119.987C96.7284 120.036 96.9766 119.984 97.2823 119.832L98.2139 119.37L99.0533 121.061L97.7921 121.687C96.1009 122.526 94.8475 122.124 94.0319 120.481L92.1326 116.654L91.1867 117.124L90.3687 115.475L91.3146 115.006L90.3401 113.043L92.3609 112.04L93.3354 114.003L95.1126 113.121L95.9306 114.769L94.1534 115.651Z" fill="#303030"/>
<path d="M96.3058 111.183C95.9677 111.387 95.6212 111.452 95.2662 111.38C94.9148 111.293 94.6428 111.089 94.4502 110.769C94.2576 110.449 94.2076 110.118 94.3003 109.776C94.3967 109.419 94.6139 109.139 94.952 108.935C95.2901 108.732 95.6348 108.674 95.9862 108.761C96.3412 108.833 96.615 109.03 96.8076 109.349C97.0002 109.669 97.0484 110.008 96.952 110.364C96.8593 110.707 96.6439 110.98 96.3058 111.183ZM97.7963 111.518L102.369 119.111L100.451 120.267L95.8775 112.674L97.7963 111.518Z" fill="#303030"/>
<path d="M105.894 113.994L103.566 107.223L105.465 105.782L108.212 114.825L106.046 116.47L98.0862 111.383L99.9977 109.932L105.894 113.994Z" fill="#303030"/>
<path d="M108.092 109.276C107.447 108.654 106.997 107.976 106.742 107.241C106.494 106.499 106.447 105.78 106.6 105.083C106.761 104.378 107.104 103.753 107.629 103.208C108.088 102.732 108.584 102.41 109.116 102.241C109.656 102.066 110.176 102.011 110.675 102.077L109.765 101.2L111.33 99.5754L117.713 105.726L116.147 107.351L115.214 106.452C115.314 106.948 115.286 107.476 115.13 108.037C114.974 108.583 114.667 109.094 114.208 109.571C113.69 110.108 113.078 110.466 112.372 110.645C111.674 110.817 110.949 110.792 110.198 110.572C109.447 110.337 108.745 109.905 108.092 109.276ZM112.956 104.275C112.564 103.898 112.156 103.653 111.732 103.54C111.299 103.419 110.885 103.42 110.487 103.54C110.082 103.653 109.735 103.859 109.446 104.159C109.157 104.459 108.964 104.805 108.866 105.199C108.767 105.594 108.782 106.008 108.911 106.443C109.04 106.863 109.296 107.258 109.68 107.629C110.064 107.999 110.476 108.248 110.916 108.375C111.355 108.488 111.774 108.491 112.172 108.386C112.577 108.273 112.92 108.07 113.202 107.779C113.49 107.479 113.688 107.128 113.793 106.727C113.891 106.317 113.876 105.903 113.748 105.483C113.612 105.055 113.348 104.653 112.956 104.275Z" fill="#303030"/>
<path d="M115.06 102.01C114.319 101.507 113.76 100.915 113.385 100.234C113.015 99.5442 112.85 98.8386 112.889 98.1171C112.927 97.3955 113.16 96.7215 113.585 96.0951C113.909 95.6187 114.324 95.2363 114.829 94.9478C115.326 94.6534 115.833 94.4951 116.351 94.4731L112.87 92.1082L114.147 90.2289L123.941 96.883L122.664 98.7623L121.579 98.0249C121.784 98.5001 121.857 99.02 121.796 99.5845C121.734 100.149 121.518 100.705 121.146 101.252C120.727 101.869 120.184 102.326 119.519 102.622C118.854 102.918 118.132 103.021 117.355 102.931C116.575 102.827 115.81 102.52 115.06 102.01ZM119.007 96.2582C118.557 95.9525 118.113 95.78 117.676 95.7406C117.229 95.6953 116.82 95.7656 116.449 95.9517C116.069 96.1318 115.762 96.3939 115.528 96.738C115.294 97.082 115.162 97.4566 115.132 97.8617C115.102 98.2667 115.187 98.6728 115.387 99.0799C115.585 99.4721 115.905 99.8181 116.346 100.118C116.787 100.418 117.235 100.593 117.69 100.644C118.143 100.681 118.556 100.614 118.93 100.442C119.31 100.262 119.614 100.005 119.842 99.6694C120.076 99.3253 120.211 98.9463 120.247 98.5324C120.275 98.1126 120.189 97.7065 119.992 97.3142C119.785 96.916 119.457 96.564 119.007 96.2582Z" fill="#303030"/>
<path d="M126.8 91.4898C126.44 92.2633 125.947 92.8807 125.32 93.342C124.684 93.7988 123.968 94.0597 123.173 94.1248C122.382 94.1802 121.576 94.0165 120.754 93.6338C119.932 93.2511 119.29 92.7345 118.828 92.084C118.371 91.4239 118.119 90.7007 118.073 89.9146C118.018 89.124 118.17 88.3419 118.531 87.5683C118.891 86.7947 119.391 86.1747 120.032 85.7083C120.663 85.2374 121.376 84.9694 122.172 84.9043C122.971 84.8295 123.782 84.9835 124.604 85.3662C125.426 85.749 126.063 86.2753 126.516 86.9451C126.974 87.6052 127.228 88.3354 127.279 89.1357C127.324 89.9218 127.165 90.7065 126.8 91.4898ZM125.031 90.6657C125.202 90.2983 125.275 89.9145 125.249 89.5143C125.218 89.1 125.069 88.7129 124.802 88.3529C124.534 87.9929 124.144 87.6935 123.631 87.4549C122.867 87.0992 122.188 87.0298 121.593 87.2468C120.992 87.4497 120.557 87.8412 120.287 88.4213C120.016 89.0015 119.997 89.5867 120.228 90.1767C120.454 90.7526 120.949 91.2184 121.713 91.5742C122.477 91.9299 123.155 92.016 123.746 91.8325C124.332 91.6348 124.76 91.2459 125.031 90.6657Z" fill="#303030"/>
<path d="M130.266 82.4918C130.059 83.187 129.751 83.7739 129.341 84.2528C128.921 84.7287 128.447 85.0662 127.92 85.2653C127.397 85.4542 126.869 85.4863 126.339 85.3616L126.983 83.1996C127.323 83.2562 127.641 83.1785 127.938 82.9665C128.238 82.7442 128.45 82.4236 128.575 82.0045C128.697 81.5956 128.71 81.2543 128.613 80.9807C128.52 80.6968 128.345 80.5168 128.089 80.4406C127.813 80.3584 127.566 80.4405 127.348 80.6872C127.123 80.9205 126.837 81.3195 126.491 81.8841C126.148 82.4721 125.834 82.9463 125.549 83.3064C125.267 83.6563 124.913 83.9292 124.487 84.1251C124.064 84.3108 123.567 84.3184 122.994 84.1477C122.524 84.0076 122.134 83.7467 121.825 83.3652C121.519 82.9734 121.328 82.4935 121.252 81.9256C121.18 81.3475 121.246 80.716 121.45 80.0311C121.751 79.0191 122.248 78.2877 122.939 77.8369C123.619 77.3831 124.398 77.2535 125.275 77.448L124.663 79.5027C124.316 79.4328 124.008 79.4968 123.737 79.6944C123.46 79.8788 123.258 80.1806 123.134 80.5997C123.018 80.9881 122.999 81.311 123.079 81.5683C123.161 81.8154 123.33 81.9771 123.585 82.0532C123.871 82.1386 124.134 82.0609 124.372 81.8204C124.601 81.5769 124.882 81.1764 125.215 80.6189C125.551 80.0513 125.86 79.5925 126.143 79.2426C126.425 78.8927 126.783 78.6264 127.215 78.4438C127.641 78.2479 128.137 78.2286 128.702 78.3859C129.193 78.5322 129.591 78.8012 129.897 79.193C130.206 79.5745 130.397 80.0544 130.47 80.6325C130.535 81.1974 130.467 81.8172 130.266 82.4918Z" fill="#303030"/>
<path d="M109.951 67.0156C109.951 43.8197 91.1466 25.0156 67.9507 25.0156C44.7547 25.0156 25.9507 43.8197 25.9507 67.0156C25.9507 90.2116 44.7547 109.016 67.9507 109.016C91.1466 109.016 109.951 90.2116 109.951 67.0156Z" fill="#5E3BDA"/>
<path d="M58.276 49.552L52.252 64H48.052L54.148 50.008H46.684V46.504H58.276V49.552Z" fill="white"/>
<path d="M59.5997 50.896C59.5997 49.6 59.9677 48.6 60.7037 47.896C61.4557 47.192 62.4237 46.84 63.6077 46.84C64.7917 46.84 65.7517 47.192 66.4877 47.896C67.2237 48.6 67.5917 49.6 67.5917 50.896C67.5917 52.192 67.2237 53.192 66.4877 53.896C65.7517 54.6 64.7917 54.952 63.6077 54.952C62.4237 54.952 61.4557 54.6 60.7037 53.896C59.9677 53.192 59.5997 52.192 59.5997 50.896ZM75.8957 47.104L66.6557 64H62.6957L71.9357 47.104H75.8957ZM63.5837 49.24C62.8157 49.24 62.4317 49.792 62.4317 50.896C62.4317 51.984 62.8157 52.528 63.5837 52.528C63.9517 52.528 64.2397 52.392 64.4477 52.12C64.6557 51.848 64.7597 51.44 64.7597 50.896C64.7597 49.792 64.3677 49.24 63.5837 49.24ZM71.0237 60.208C71.0237 58.912 71.3917 57.912 72.1277 57.208C72.8637 56.504 73.8237 56.152 75.0077 56.152C76.1917 56.152 77.1517 56.504 77.8877 57.208C78.6237 57.912 78.9917 58.912 78.9917 60.208C78.9917 61.504 78.6237 62.504 77.8877 63.208C77.1517 63.912 76.1917 64.264 75.0077 64.264C73.8237 64.264 72.8637 63.912 72.1277 63.208C71.3917 62.504 71.0237 61.504 71.0237 60.208ZM74.9837 58.552C74.6157 58.552 74.3277 58.688 74.1197 58.96C73.9277 59.232 73.8317 59.648 73.8317 60.208C73.8317 61.296 74.2157 61.84 74.9837 61.84C75.3517 61.84 75.6397 61.704 75.8477 61.432C76.0557 61.16 76.1597 60.752 76.1597 60.208C76.1597 59.664 76.0557 59.256 75.8477 58.984C75.6397 58.696 75.3517 58.552 74.9837 58.552Z" fill="white"/>
<path d="M83.5772 59.52C83.5772 58.6026 83.7478 57.7973 84.0892 57.104C84.4412 56.4106 84.9158 55.8773 85.5132 55.504C86.1105 55.1306 86.7772 54.944 87.5132 54.944C88.1425 54.944 88.6918 55.072 89.1612 55.328C89.6412 55.584 90.0092 55.92 90.2652 56.336V55.072H93.0012V64H90.2652V62.736C89.9985 63.152 89.6252 63.488 89.1452 63.744C88.6758 64 88.1265 64.128 87.4972 64.128C86.7718 64.128 86.1105 63.9413 85.5132 63.568C84.9158 63.184 84.4412 62.6453 84.0892 61.952C83.7478 61.248 83.5772 60.4373 83.5772 59.52ZM90.2652 59.536C90.2652 58.8533 90.0732 58.3146 89.6892 57.92C89.3158 57.5253 88.8572 57.328 88.3132 57.328C87.7692 57.328 87.3052 57.5253 86.9212 57.92C86.5478 58.304 86.3612 58.8373 86.3612 59.52C86.3612 60.2026 86.5478 60.7466 86.9212 61.152C87.3052 61.5466 87.7692 61.744 88.3132 61.744C88.8572 61.744 89.3158 61.5466 89.6892 61.152C90.0732 60.7573 90.2652 60.2186 90.2652 59.536Z" fill="white"/>
<path d="M46.6432 73.872V69.456H54.0352V87H49.1152V73.872H46.6432Z" fill="white"/>
<path d="M56.7164 84.12V80.232L64.0844 69.72H69.2444V80.04H71.0924V84.12H69.2444V87H64.4924V84.12H56.7164ZM64.8524 75.024L61.5404 80.04H64.8524V75.024Z" fill="white"/>
<path d="M72.7102 73.968C72.7102 72.608 73.0942 71.568 73.8622 70.848C74.6302 70.128 75.6382 69.768 76.8862 69.768C78.1182 69.768 79.1182 70.128 79.8862 70.848C80.6542 71.568 81.0382 72.608 81.0382 73.968C81.0382 75.312 80.6542 76.352 79.8862 77.088C79.1182 77.808 78.1182 78.168 76.8862 78.168C75.6542 78.168 74.6462 77.808 73.8622 77.088C73.0942 76.352 72.7102 75.312 72.7102 73.968ZM89.7502 70.032L80.6542 87H76.1422L85.2382 70.032H89.7502ZM76.8622 72.528C76.2062 72.528 75.8782 73.008 75.8782 73.968C75.8782 74.928 76.2062 75.408 76.8622 75.408C77.1822 75.408 77.4302 75.288 77.6062 75.048C77.7982 74.808 77.8942 74.448 77.8942 73.968C77.8942 73.488 77.7982 73.128 77.6062 72.888C77.4302 72.648 77.1822 72.528 76.8622 72.528ZM84.8542 83.04C84.8542 81.696 85.2382 80.664 86.0062 79.944C86.7902 79.208 87.7982 78.84 89.0302 78.84C90.2622 78.84 91.2542 79.208 92.0062 79.944C92.7742 80.664 93.1582 81.696 93.1582 83.04C93.1582 84.4 92.7742 85.448 92.0062 86.184C91.2542 86.904 90.2622 87.264 89.0302 87.264C87.7982 87.264 86.7902 86.904 86.0062 86.184C85.2382 85.448 84.8542 84.4 84.8542 83.04ZM89.0062 81.6C88.3342 81.6 87.9982 82.08 87.9982 83.04C87.9982 84.016 88.3342 84.504 89.0062 84.504C89.3102 84.504 89.5502 84.384 89.7262 84.144C89.9182 83.888 90.0142 83.52 90.0142 83.04C90.0142 82.576 89.9182 82.224 89.7262 81.984C89.5502 81.728 89.3102 81.6 89.0062 81.6Z" fill="white"/>
</svg>
