<svg width="25" height="33" viewBox="0 0 25 33" fill="none" xmlns="http://www.w3.org/2000/svg">
<path d="M21.5479 19.6952C22.2972 19.4391 22.9241 18.9316 23.326 18.2599C23.7495 17.5462 23.8769 16.7086 23.6866 15.9047C23.551 15.3393 23.6949 14.8125 24.1018 14.3872C24.6824 13.7847 25 12.997 25 12.1722C25 11.3474 24.6824 10.5596 24.1018 9.95714C23.6916 9.53187 23.5477 9.00829 23.6866 8.43964C23.8769 7.63579 23.7495 6.79808 23.326 6.08447C22.9026 5.37081 22.2211 4.84244 21.4123 4.60404C20.8399 4.43489 20.4463 4.0515 20.2726 3.4941C20.0278 2.70151 19.4852 2.04267 18.7525 1.63027C18.0197 1.21787 17.1596 1.09382 16.3342 1.27908C15.7536 1.41118 15.2127 1.27103 14.776 0.874739C14.1574 0.309299 13.3486 0 12.5017 0C11.6548 0 10.8459 0.309299 10.2273 0.874739C9.7906 1.27425 9.25299 1.4144 8.66909 1.28231C7.8437 1.09705 6.98355 1.22109 6.25081 1.63349C5.51808 2.04589 4.97551 2.7096 4.73071 3.49733C4.55703 4.05472 4.16338 4.43809 3.59104 4.60726C2.77721 4.84568 2.10071 5.37407 1.67726 6.08769C1.25381 6.80134 1.12644 7.63901 1.31667 8.44286C1.4523 9.0083 1.3084 9.53505 0.898179 9.96036C0.317587 10.5628 0 11.3506 0 12.1754C0 13.0002 0.317587 13.788 0.898179 14.3904C1.3084 14.8157 1.45231 15.3393 1.31667 15.9079C1.12644 16.7118 1.25381 17.5495 1.67726 18.2631C2.0759 18.9349 2.70612 19.4423 3.45541 19.6985L0.65666 29.8732C0.580571 30.1535 0.661623 30.4547 0.873348 30.6609C1.08507 30.8671 1.38945 30.9493 1.67723 30.8752L5.84389 29.8281L8.91885 32.7648C9.0793 32.9178 9.29103 33 9.5077 33C9.58048 33 9.65657 32.9919 9.7277 32.971C10.0155 32.8921 10.2405 32.6746 10.3165 32.3943L12.5016 24.4474L14.6867 32.3943C14.7628 32.6746 14.9878 32.8937 15.2756 32.971C15.3483 32.9919 15.4244 33 15.4956 33C15.7122 33 15.924 32.9178 16.0844 32.7648L19.1594 29.8281L23.326 30.8752C23.6139 30.9493 23.9232 30.8671 24.1299 30.6609C24.3416 30.4547 24.4227 30.1535 24.3466 29.8732L21.5479 19.6985L21.5479 19.6952ZM3.13291 17.4432C2.92119 17.0888 2.85833 16.6715 2.95427 16.2769C3.21727 15.1847 2.91622 14.0908 2.12888 13.2741C1.84106 12.9777 1.68392 12.5846 1.68392 12.177C1.68392 11.7695 1.84105 11.3764 2.12888 11.08C2.91624 10.2632 3.21727 9.1662 2.95427 8.07722C2.85667 7.67771 2.92118 7.26529 3.13291 6.91091C3.34464 6.55654 3.67878 6.29714 4.08072 6.17635C5.18237 5.85094 6.0028 5.05029 6.3369 3.97904C6.4593 3.58759 6.72727 3.25735 7.09115 3.05597C7.45505 2.84977 7.87851 2.78856 8.28871 2.88199C9.41017 3.13813 10.5333 2.84494 11.3719 2.07814C11.6763 1.79784 12.0799 1.64479 12.4984 1.64479C12.9169 1.64479 13.3205 1.79783 13.6249 2.07814C14.4635 2.84496 15.5899 3.13813 16.7081 2.88199C17.1183 2.78694 17.5418 2.84977 17.9056 3.05597C18.2695 3.26217 18.5359 3.5876 18.6599 3.97904C18.994 5.05194 19.8161 5.85097 20.9161 6.17635C21.318 6.29556 21.6571 6.55653 21.8639 6.91091C22.0706 7.2653 22.1385 7.68255 22.0425 8.07722C21.7795 9.16942 22.0806 10.2633 22.8679 11.08C23.1557 11.3764 23.3129 11.7695 23.3129 12.177C23.3129 12.5846 23.1557 12.9777 22.8679 13.2741C22.0805 14.0909 21.7795 15.1879 22.0425 16.2769C22.1401 16.6764 22.0756 17.0888 21.8639 17.4432C21.6522 17.7976 21.318 18.0569 20.9161 18.1777C19.8144 18.5031 18.994 19.3038 18.6599 20.375C18.5375 20.7665 18.2695 21.0967 17.9056 21.2981C17.5417 21.5043 17.1133 21.5655 16.7081 21.4721C15.5866 21.216 14.4635 21.5091 13.6249 22.2759C13.3205 22.5563 12.9169 22.7093 12.4984 22.7093C12.0799 22.7093 11.6763 22.5563 11.3719 22.2759C10.7318 21.6896 9.92293 21.3803 9.07603 21.3803C8.81303 21.3803 8.55167 21.4093 8.28371 21.4705C7.8735 21.5607 7.45002 21.5027 7.08615 21.2965C6.72228 21.0903 6.45593 20.7649 6.3319 20.3734C5.99778 19.3005 5.17567 18.5015 4.07572 18.1761C3.67377 18.0569 3.33468 17.7959 3.12791 17.4415L3.13291 17.4432ZM9.06968 30.6156L6.68612 28.3346C6.4744 28.1332 6.17337 28.0542 5.8905 28.1284L2.65509 28.9403L4.81866 21.0725C5.08994 21.762 5.59277 22.3387 6.25772 22.7141C6.9905 23.1265 7.85061 23.2505 8.676 23.0653C9.25659 22.9332 9.79746 23.0733 10.2342 23.4696C10.4409 23.6549 10.6659 23.816 10.9074 23.9432L9.07463 30.6125L9.06968 30.6156ZM19.1215 28.1284C18.837 28.0575 18.5327 28.1364 18.3259 28.3346L15.9424 30.6156L14.1096 23.9463C14.3511 23.819 14.5794 23.6579 14.7828 23.4727C15.2195 23.0732 15.7571 22.933 16.341 23.0683C17.1664 23.2536 18.0265 23.1296 18.7593 22.7172C19.4242 22.3467 19.9287 21.7683 20.1983 21.0756L22.3619 28.9434L19.1265 28.1314L19.1215 28.1284ZM5.34798 11.3487L8.57843 14.0615L7.60416 18.1065C7.52807 18.4287 7.65543 18.7621 7.92671 18.9523C8.07558 19.0554 8.2443 19.1085 8.418 19.1085C8.56686 19.1085 8.71904 19.0715 8.85466 18.9893L12.5053 16.8371L16.1559 18.9893C16.4437 19.1585 16.8076 19.1456 17.0838 18.9523C17.3551 18.759 17.4858 18.4239 17.4064 18.1065L16.4321 14.0615L19.6625 11.3487C19.9173 11.1344 20.0182 10.7913 19.9123 10.4787C19.8065 10.1646 19.5219 9.94712 19.1845 9.91813L14.9335 9.57178L13.2827 5.74097C13.152 5.43972 12.846 5.24159 12.5086 5.24159C12.1695 5.24159 11.8652 5.43974 11.7345 5.74097L10.0837 9.57178L5.83269 9.91813C5.49856 9.94713 5.21073 10.1662 5.10487 10.4787C4.999 10.7929 5.0999 11.1344 5.35463 11.3487L5.34798 11.3487ZM10.7254 11.1537C11.0347 11.1296 11.306 10.9346 11.4284 10.6544L12.5036 8.15902L13.5787 10.6544C13.7011 10.9347 13.9724 11.1247 14.2818 11.1537L17.0507 11.3809L14.9467 13.1497C14.7102 13.3478 14.6076 13.6572 14.6804 13.9535L15.3156 16.589L12.9403 15.1875C12.6739 15.0313 12.3382 15.0313 12.0718 15.1875L9.69655 16.589L10.3317 13.9535C10.4045 13.6571 10.2986 13.3478 10.0654 13.1497L7.96137 11.3809L10.7304 11.1537H10.7254Z" fill="#09A47D"/>
</svg>
