<svg width="34" height="32" viewBox="0 0 34 32" fill="none" xmlns="http://www.w3.org/2000/svg">
<path d="M2.44179 14.7641C2.4563 14.7655 2.47054 14.7683 2.48475 14.7709C2.5138 14.7762 2.54165 14.7835 2.56874 14.7934C2.57563 14.7959 2.58248 14.7984 2.58925 14.8012C2.64239 14.823 2.69026 14.8531 2.7328 14.89C2.74184 14.8979 2.75065 14.906 2.75917 14.9145C2.79548 14.9506 2.82649 14.9912 2.85097 15.0365L4.35097 17.4828C4.50152 17.7292 4.4243 18.0527 4.17811 18.2035C3.93161 18.3542 3.60718 18.2772 3.45643 18.0307L2.87929 17.0863C3.08161 20.4313 4.44059 23.5794 6.75819 26.0307C9.31632 28.7381 12.771 30.322 16.4828 30.4926C16.7713 30.5054 16.9953 30.7519 16.9828 31.0404C16.9687 31.3193 16.7359 31.5395 16.4584 31.5395H16.434C12.4476 31.3562 8.74171 29.6561 5.99647 26.7504C3.53731 24.1503 2.08276 20.8176 1.84022 17.2729L1.40858 18.018C1.31141 18.1856 1.13517 18.2796 0.953505 18.2797C0.863351 18.2797 0.772944 18.2573 0.689833 18.2094C0.439289 18.0643 0.354544 17.7432 0.499403 17.4926L1.93495 15.0219C1.99687 14.9159 2.09354 14.8362 2.20546 14.7943C2.2119 14.7919 2.21843 14.7897 2.22499 14.7875C2.24759 14.7801 2.27072 14.7742 2.29432 14.7699C2.31009 14.767 2.32598 14.7646 2.34218 14.7631C2.35575 14.7619 2.36943 14.7612 2.38319 14.7611H2.42128C2.4282 14.7615 2.43494 14.7634 2.44179 14.7641ZM17.1459 5.19082C23.223 5.19082 28.1674 10.1356 28.1674 16.2123C28.1686 22.2893 23.224 27.2328 17.1459 27.2328C11.069 27.2327 6.12554 22.2888 6.12538 16.2123C6.12538 10.1357 11.0693 5.19095 17.1459 5.19082ZM17.1459 6.23868C11.6467 6.23881 7.17341 10.7122 7.17323 16.2113C7.17323 21.7106 11.6466 26.1848 17.1459 26.185C22.6453 26.185 27.1195 21.7107 27.1195 16.2113C27.1193 10.7121 22.6452 6.23868 17.1459 6.23868ZM17.1459 8.33047C21.4916 8.33047 25.0266 11.866 25.0267 16.2104C25.0282 20.5561 21.4917 24.0922 17.1459 24.0922C12.8002 24.0921 9.266 20.5557 9.266 16.2113C9.26621 11.8658 12.8017 8.3306 17.1459 8.33047ZM17.1459 9.38028C13.3794 9.3804 10.3158 12.4438 10.3158 16.2104C10.3159 19.9769 13.3794 23.0403 17.1459 23.0404C20.9125 23.0404 23.9769 19.9769 23.9769 16.2104C23.9783 12.4437 20.9125 9.38028 17.1459 9.38028ZM17.1459 11.3969C17.4361 11.3969 17.6703 11.6325 17.6703 11.9213V12.6234H18.9857C19.2759 12.6235 19.5092 12.8591 19.5092 13.1479C19.5091 13.438 19.2744 13.6712 18.9857 13.6713H16.8402C16.2839 13.6713 15.8335 14.1238 15.8334 14.6801C15.8334 15.2365 16.2852 15.6889 16.8402 15.6889H17.4525C18.5865 15.6889 19.5091 16.6116 19.5092 17.7455C19.5092 18.8034 18.7024 19.6776 17.6703 19.7865V20.5023C17.6717 20.7911 17.4361 21.0268 17.1459 21.0268C16.8558 21.0267 16.6224 20.791 16.6224 20.5023V19.7992H15.308C15.0179 19.7992 14.7838 19.5644 14.7836 19.2758C14.7836 18.9856 15.0192 18.7514 15.308 18.7514H17.4525C18.0088 18.7514 18.4611 18.2994 18.4613 17.7445C18.4613 17.1881 18.009 16.7367 17.4525 16.7367H16.8402C15.7063 16.7367 14.7836 15.814 14.7836 14.6801C14.7837 13.6198 15.5906 12.7443 16.6224 12.6352V11.9213C16.6224 11.6312 16.8572 11.397 17.1459 11.3969ZM18.4301 0.919341C22.3644 1.24474 25.9823 3.05497 28.6137 6.01602C30.9173 8.60525 32.2652 11.8822 32.4633 15.3256L33.0267 14.3959C33.1774 14.1481 33.4986 14.0692 33.7465 14.2182C33.9944 14.3689 34.0735 14.6909 33.9242 14.9389L32.4183 17.4242C32.4135 17.4321 32.4069 17.4391 32.4017 17.4467C32.3965 17.4545 32.3918 17.4626 32.3861 17.4701C32.369 17.4926 32.3506 17.5134 32.3305 17.5326C32.3271 17.5358 32.3231 17.5383 32.3197 17.5414C32.3003 17.559 32.2799 17.5749 32.2582 17.5893C32.2539 17.5921 32.2499 17.5953 32.2455 17.5981C32.1949 17.6296 32.1394 17.6517 32.0805 17.6645C32.0743 17.6658 32.0682 17.6672 32.0619 17.6684C32.0315 17.6738 32.0007 17.6781 31.9691 17.6781H31.9652C31.9607 17.6781 31.956 17.6773 31.9516 17.6772C31.9472 17.677 31.9425 17.6777 31.9379 17.6772C31.9343 17.6769 31.9307 17.6755 31.9271 17.6752C31.8626 17.67 31.8008 17.6528 31.7435 17.6254C31.7387 17.6231 31.7337 17.621 31.7289 17.6186C31.6415 17.5734 31.5669 17.5046 31.516 17.4174L30.0717 14.9311C29.9268 14.6804 30.0114 14.3593 30.2621 14.2143C30.5128 14.0694 30.8338 14.154 30.9789 14.4047L31.3969 15.1254C31.1607 12.0133 29.9177 9.05931 27.8305 6.71329C25.378 3.95518 22.0084 2.26864 18.3432 1.96426C18.0545 1.94033 17.84 1.68742 17.8637 1.39883C17.8876 1.11016 18.1414 0.895569 18.4301 0.919341Z" fill="#1B3CDB"/>
</svg>
