<svg width="61" height="69" viewBox="0 0 61 69" fill="none" xmlns="http://www.w3.org/2000/svg">
<path d="M59.9492 41C59.9492 56.464 47.4132 69 31.9492 69C16.4852 69 3.94922 56.464 3.94922 41C3.94922 25.536 16.4852 13 31.9492 13C47.4132 13 59.9492 25.536 59.9492 41Z" fill="#F7F0D4"/>
<path d="M15.337 6.80647L13.1941 5.25021L7.99004 7.74023L3.09208 12.0978L6.45942 27.9717L17.786 47.5806L29.1125 60.342L32.4798 60.9645L38.6023 56.9182L41.6635 54.1169L37.6839 48.5144L33.3982 43.5343H25.7451L19.0104 33.8855L15.337 23.6141L19.0104 16.4553L15.337 6.80647Z" fill="#7854F7"/>
<path d="M26.1277 22.9294L23.9849 19.1794L40.0563 8.46512L36.842 6.32227L37.3777 2.57227L50.2349 6.32227L46.4849 19.1794L42.7349 18.108L43.2706 13.2866L26.1277 22.9294Z" fill="#BEBEBE"/>
<path d="M57.0564 21.0003L59.1992 24.7503L43.1278 35.4646L46.3421 37.6074L45.8064 41.3574L32.9492 37.6074L36.6992 24.7503L40.4492 25.8217L39.9135 30.6431L57.0564 21.0003Z" fill="white"/>
<path fill-rule="evenodd" clip-rule="evenodd" d="M42.3565 9.75657L26.1367 19.1461C25.7546 19.3675 25.6174 19.8783 25.8389 20.262C26.0105 20.5618 26.3194 20.6691 26.5513 20.6691C26.6928 20.6691 26.8275 20.6327 26.9499 20.5618L42.8505 11.3568C43.4189 11.0273 44.1282 11.0742 44.6487 11.4746C45.1685 11.8743 45.3962 12.5504 45.227 13.1846L44.274 16.7501C44.1996 17.0333 44.2943 17.259 44.3565 17.3688C44.4198 17.4786 44.5675 17.6736 44.8499 17.7488C44.9212 17.7673 44.992 17.7772 45.0627 17.7772C45.4294 17.7772 45.7524 17.5292 45.8471 17.1733L48.391 7.65796C48.466 7.37481 48.3719 7.14903 48.3092 7.03861C48.2446 6.92881 48.0975 6.73388 47.8145 6.65862L38.832 4.24601C38.7606 4.22689 38.6899 4.21702 38.6191 4.21702C38.2524 4.21702 37.9295 4.46624 37.8341 4.82279C37.7591 5.10594 37.8526 5.33233 37.9159 5.44214C37.9793 5.55194 38.1269 5.74687 38.4105 5.82275L41.9646 6.77768C42.5982 6.94732 43.0676 7.48462 43.1531 8.13665C43.2387 8.78808 42.9237 9.42778 42.3565 9.75657ZM28.5735 23.3778C27.9595 23.7332 27.2594 23.9207 26.5513 23.9207C25.1007 23.9207 23.7521 23.141 23.0299 21.8887C21.9108 19.9443 22.5777 17.4515 24.5156 16.3294L37.3518 8.89973C36.4025 8.58636 35.6108 7.94234 35.1063 7.06822C34.5649 6.12687 34.4203 5.03006 34.7015 3.98075C35.1758 2.206 36.787 0.964844 38.6197 0.964844C38.9735 0.964844 39.3266 1.01234 39.6711 1.10487L48.6543 3.51686C49.7014 3.79939 50.5756 4.47241 51.1175 5.41314C51.6595 6.35511 51.8035 7.4513 51.5236 8.5L48.9803 18.0135C48.5073 19.7907 46.8954 21.0306 45.0627 21.0306C44.709 21.0306 44.3559 20.9831 44.0126 20.8918C42.9649 20.6099 42.0901 19.9363 41.5481 18.9955C41.0448 18.122 40.8837 17.1122 41.0891 16.1314L28.5735 23.3778ZM57.2991 24.2871C57.5501 24.1428 57.6424 23.9133 57.6762 23.7911C57.7088 23.6684 57.7427 23.4235 57.5969 23.1712C57.4252 22.8732 57.1164 22.7653 56.8857 22.7653C56.743 22.7653 56.6082 22.8011 56.4846 22.8732L40.5853 32.0776C40.0168 32.4077 39.3075 32.3596 38.7871 31.9592C38.2678 31.5595 38.039 30.8846 38.2088 30.2486L39.1617 26.6843C39.2368 26.3999 39.1433 26.1748 39.0793 26.0649C39.0165 25.9545 38.8683 25.7602 38.584 25.6843C38.5145 25.6652 38.4432 25.6553 38.373 25.6553C38.007 25.6553 37.6834 25.9046 37.5886 26.2611L35.0448 35.7746C34.9697 36.059 35.0639 36.2841 35.1266 36.3933C35.1912 36.5037 35.3382 36.6987 35.6218 36.7745L44.6038 39.1884C44.6764 39.2075 44.7459 39.2168 44.8173 39.2168C45.1827 39.2168 45.5063 38.9682 45.6023 38.6116C45.7173 38.1767 45.4589 37.7282 45.0252 37.6123L41.4712 36.6567C40.8375 36.4859 40.3681 35.9498 40.2826 35.2977C40.1971 34.6463 40.5121 34.0066 41.0805 33.6778L57.2991 24.2871ZM56.8857 19.5131C58.3363 19.5131 59.6842 20.2928 60.4071 21.5457C60.9473 22.4852 61.0894 23.5802 60.8082 24.6319C60.5271 25.6837 59.8571 26.5621 58.9208 27.1044L46.0834 34.5347C48.1117 35.2034 49.2935 37.3593 48.7349 39.4518C48.2599 41.229 46.6487 42.4696 44.8167 42.4696C44.4623 42.4696 44.1092 42.4221 43.7659 42.3301L34.7815 39.9157C33.7362 39.6356 32.8602 38.9614 32.3182 38.0206C31.7762 37.0787 31.6323 35.9819 31.9134 34.9326L34.4554 25.4191C34.9291 23.6431 36.5403 22.4025 38.373 22.4025C38.7274 22.4025 39.0799 22.4507 39.4238 22.5426C40.4709 22.8239 41.3457 23.4963 41.8877 24.4389C42.3921 25.313 42.5521 26.3228 42.346 27.3024L54.8623 20.0566C55.4781 19.7012 56.177 19.5131 56.8857 19.5131Z" fill="#303030"/>
<path fill-rule="evenodd" clip-rule="evenodd" d="M38.0316 45.3812C38.6056 46.1079 39.3223 47.0129 40.2033 48.0856C40.408 48.3362 40.6211 48.5837 40.8282 48.8243L40.8843 48.8894C42.1596 50.3692 43.4796 51.9009 43.115 53.9848C42.7533 56.0612 40.7631 57.9785 36.4628 60.3979L36.4437 60.4071C34.405 61.5181 32.7741 62.0363 31.3105 62.0363C30.0856 62.0363 28.9875 61.6723 28.0444 60.9555L27.9952 60.9166C16.1193 51.1416 3.50644 29.2338 1.00134 14.0358L0.991496 13.9717C0.511024 10.1174 4.25514 7.81835 5.6658 6.95225L5.68364 6.94115C8.96944 4.98318 11.2272 4.10968 13.007 4.10968C14.4583 4.10968 15.6216 4.69633 16.4651 5.85298C17.0926 6.71167 17.4531 7.75234 17.8339 8.85347L17.8462 8.88918C17.9549 9.20374 18.0673 9.52877 18.1864 9.84787C18.6369 11.0535 19.0337 12.0635 19.3586 12.8906C19.3846 12.9568 19.4102 13.0219 19.4353 13.0859C20.3402 15.3819 20.7942 16.5348 20.7512 17.6884C20.7007 19.0437 20.0019 19.9061 18.9419 21.2095L18.9359 21.2168C18.4245 21.8472 17.7884 22.6313 17.0095 23.714C16.9806 23.7702 16.2048 25.4148 20.9628 33.7383C25.7675 42.0248 27.5762 42.1728 27.6507 42.1753C28.9678 42.0408 29.9663 41.8792 30.7673 41.749C31.6409 41.6078 32.2721 41.5066 32.8811 41.5066C34.9619 41.5066 35.8592 42.6392 38.0244 45.3722L38.0316 45.3812ZM39.9209 53.4234C40.019 52.8594 39.253 51.9698 38.4394 51.0248L38.4321 51.0164L38.4059 50.986C38.1761 50.7199 37.9387 50.445 37.6994 50.1528C36.8057 49.0649 36.0836 48.1528 35.5031 47.4195L35.4908 47.404C33.6317 45.0549 33.3401 44.7594 32.8811 44.7594C32.5356 44.7594 31.9895 44.8469 31.3 44.9573L31.284 44.9599C30.4406 45.0962 29.3905 45.2659 27.9656 45.4102C27.8629 45.4213 27.7553 45.4269 27.6501 45.4269C25.0834 45.4269 22.243 42.4177 18.1538 35.3638C13.9544 28.0192 12.8268 23.9682 14.3771 21.8116C15.2057 20.6583 15.8723 19.8367 16.409 19.1753L16.4257 19.1547C17.1307 18.2867 17.4998 17.8216 17.5097 17.565C17.5275 17.0951 17.0878 15.9788 16.422 14.2886L16.4017 14.2369C16.0607 13.3703 15.6379 12.2957 15.1491 10.9897C15.0364 10.6879 14.9339 10.3943 14.8343 10.109C14.8122 10.0456 14.7902 9.98261 14.7683 9.92005C14.0153 7.74555 13.7526 7.36186 13.007 7.36186C12.2405 7.36186 10.636 7.77393 7.35023 9.73128C4.40525 11.5424 4.11365 12.7163 4.20777 13.5399C6.61752 28.084 18.6699 49.0152 30.0253 58.3794C30.3969 58.6546 30.8067 58.7829 31.3111 58.7829C32.1989 58.7829 33.3684 58.3813 34.8873 57.5547C39.0473 55.2136 39.828 53.9614 39.9209 53.4234Z" fill="#303030"/>
</svg>
