<svg width="86" height="86" viewBox="0 0 86 86" fill="none" xmlns="http://www.w3.org/2000/svg">
<rect opacity="0.08" x="0.5" y="0.5" width="85" height="85" rx="3" fill="#F2994A"/>
<path fill-rule="evenodd" clip-rule="evenodd" d="M16.4417 53.1444C14.4869 52.8064 13 51.1012 13 49.0476V37.9554C13 35.6575 14.8613 33.7962 17.1592 33.7962H17.1618C17.2814 33.7962 17.3983 33.8014 17.5153 33.8118C20.9986 24.4845 29.3613 17.531 39.4891 16.0596C39.6789 15.3707 40.0428 14.7312 40.5601 14.2166C41.34 13.4367 42.3954 13 43.5002 13H64.2961C65.4009 13 66.4563 13.4367 67.2361 14.2166C68.016 14.9964 68.4553 16.0544 68.4553 17.1592V30.1227C68.4553 30.471 68.4111 30.8168 68.3279 31.1469C68.7568 32.01 69.1442 32.899 69.4847 33.8114C69.6043 33.801 69.7212 33.7958 69.8408 33.7958H69.8434C72.1413 33.7958 74 35.6545 74 37.9524V49.0446C74 51.3425 72.1387 53.2038 69.8408 53.2038H69.8382C67.5429 53.2038 65.6816 51.3451 65.6816 49.0472V37.955C65.6816 36.7775 66.1703 35.7168 66.9528 34.9604C66.7968 34.5289 66.6279 34.1025 66.4485 33.6814C65.8038 34.0713 65.0604 34.2819 64.2961 34.2819H62.1437C63.5214 37.0608 64.2961 40.1906 64.2961 43.5001C64.2961 54.9769 54.9769 64.2962 43.5002 64.2962C32.0235 64.2962 22.7043 54.9769 22.7043 43.5001C22.7043 33.4481 29.8527 25.0511 39.341 23.1225V18.8905C30.4064 20.3904 23.0783 26.6446 20.0477 34.9604C20.8302 35.7143 21.3189 36.7775 21.3189 37.9525V49.0446C21.3189 50.6017 20.4636 51.9587 19.1977 52.6735C21.3007 59.2425 28.33 67.8783 39.5884 68.4266C40.168 66.828 41.7018 65.6816 43.5006 65.6816C45.7959 65.6816 47.6598 67.5454 47.6598 69.8408C47.6598 72.1387 45.7959 74 43.5006 74C41.6809 74 40.1343 72.8302 39.5702 71.2029C26.6588 70.631 18.6858 60.5919 16.4425 53.1439L16.4417 53.1444ZM52.5122 18.545V28.2489C52.5122 29.0158 53.1335 29.6371 53.8977 29.6371C54.6619 29.6371 55.2832 29.0158 55.2832 28.2489V18.545C55.2832 17.7808 54.6619 17.1595 53.8977 17.1595C53.1335 17.1595 52.5122 17.7807 52.5122 18.545ZM48.353 19.9305V26.8634C48.353 27.6277 48.9743 28.2489 49.7385 28.2489C50.5027 28.2489 51.124 27.6277 51.124 26.8634V19.9305C51.124 19.1663 50.5027 18.545 49.7385 18.545C48.9743 18.545 48.353 19.1663 48.353 19.9305ZM44.1938 21.3186V25.4778C44.1938 26.2421 44.8151 26.8634 45.5793 26.8634C46.3436 26.8634 46.9648 26.2421 46.9648 25.4778V21.3186C46.9648 20.5518 46.3436 19.9305 45.5793 19.9305C44.8151 19.9305 44.1938 20.5518 44.1938 21.3186ZM56.6714 19.9305V26.8634C56.6714 27.6277 57.2926 28.2489 58.0569 28.2489C58.8211 28.2489 59.4424 27.6277 59.4424 26.8634V19.9305C59.4424 19.1663 58.8211 18.545 58.0569 18.545C57.2926 18.545 56.6714 19.1663 56.6714 19.9305ZM39.3405 25.9588C31.3942 27.8382 25.4775 34.984 25.4775 43.5C25.4775 53.4482 33.5516 61.5224 43.4997 61.5224C53.4478 61.5224 61.522 53.4482 61.522 43.5C61.522 40.1337 60.5992 36.9804 58.9875 34.2819H53.8795C53.2972 34.2819 52.7746 34.6458 52.5797 35.1839C51.7271 37.5573 49.4213 39.8968 46.0706 41.1732C44.9658 41.5917 43.7207 41.2772 42.959 40.3726C42.1948 39.4679 42.0934 38.1734 42.7069 37.1596C42.7381 37.1076 42.7745 37.0582 42.8109 37.0114C43.2034 36.5227 43.4035 35.9586 43.5309 35.3373L43.5335 35.3295C43.5855 35.0904 43.5257 34.846 43.3723 34.6589C43.2216 34.4717 42.9928 34.3625 42.7536 34.3625C42.5405 34.3625 42.3429 34.3157 42.1636 34.23C41.4773 34.1104 40.8378 33.7828 40.3387 33.2837C39.6992 32.6442 39.3405 31.7786 39.3405 30.874L39.3405 25.9588ZM60.8306 21.3186V25.4778C60.8306 26.2421 61.4518 26.8634 62.2161 26.8634C62.9803 26.8634 63.6016 26.2421 63.6016 25.4778V21.3186C63.6016 20.5518 62.9803 19.9305 62.2161 19.9305C61.4518 19.9305 60.8306 20.5518 60.8306 21.3186Z" fill="#F2994A"/>
</svg>
