<svg width="40" height="30" viewBox="0 0 40 30" fill="none" xmlns="http://www.w3.org/2000/svg">
<path d="M22.3447 0H3.72878C1.66189 0 0 1.66189 0 3.72877V14.3286C0 16.3815 1.66189 18.0573 3.72878 18.0573H5.82359V21.6185C5.82359 22.4006 6.73135 22.8335 7.33186 22.3447L12.7924 18.0573H22.3447C24.3976 18.0573 26.0735 16.3815 26.0735 14.3286V3.72877C26.0735 1.66189 24.3976 0 22.3447 0ZM8.3681 10.2828H8.167C7.47291 10.2828 6.91011 9.71995 6.91011 9.02587C6.91011 8.33179 7.47291 7.76898 8.167 7.76898H8.3695C9.06358 7.76898 9.62639 8.33179 9.62639 9.02587C9.62639 9.71995 9.06218 10.2828 8.3681 10.2828ZM13.1345 10.2828H12.9334C12.2393 10.2828 11.6765 9.71995 11.6765 9.02587C11.6765 8.33179 12.2393 7.76898 12.9334 7.76898H13.1345C13.8286 7.76898 14.3914 8.33179 14.3914 9.02587C14.3914 9.71995 13.8286 10.2828 13.1345 10.2828ZM17.9023 10.2828H17.6998C17.0057 10.2828 16.4429 9.71995 16.4429 9.02587C16.4429 8.33179 17.0057 7.76898 17.6998 7.76898H17.9023C18.5964 7.76898 19.1592 8.33179 19.1592 9.02587C19.1592 9.71995 18.5964 10.2828 17.9023 10.2828Z" fill="#462BDD"/>
<path d="M35.3745 7.4436H28.5873V14.3286C28.5873 17.7711 25.7872 20.5711 22.3447 20.5711H13.661L13.0298 21.0669V21.7722C13.0298 23.839 14.7056 25.5009 16.7586 25.5009H26.3109L31.7714 29.8023C32.3719 30.2771 33.2797 29.8442 33.2797 29.0621V25.5009H35.3745C37.4414 25.5009 39.1033 23.839 39.1033 21.7722V11.1724C39.1033 9.11946 37.4414 7.4436 35.3745 7.4436Z" fill="#462BDD"/>
</svg>
