<svg width="14" height="13" viewBox="0 0 14 13" fill="none" xmlns="http://www.w3.org/2000/svg">
<path fill-rule="evenodd" clip-rule="evenodd" d="M7.63373 0.5C4.71044 0.5 2.24219 2.3689 1.50013 4.90634H0.376613C0.306935 4.90673 0.238719 4.92523 0.179469 4.95982C0.120219 4.9944 0.0722307 5.04373 0.0407815 5.10237C0.0093323 5.16101 -0.00435895 5.2267 0.0012136 5.29221C0.00678614 5.35771 0.0314066 5.4205 0.072367 5.47366L1.68307 7.55165C1.71822 7.59717 1.76429 7.63422 1.81751 7.65975C1.87073 7.68529 1.92959 7.6986 1.98931 7.6986C2.04902 7.6986 2.10788 7.68529 2.1611 7.65975C2.21432 7.63422 2.26039 7.59717 2.29554 7.55165L3.90326 5.47366C3.94427 5.42044 3.9689 5.35756 3.97443 5.29198C3.97997 5.22639 3.96619 5.16063 3.93462 5.10196C3.90305 5.04328 3.85492 4.99397 3.79552 4.95945C3.73613 4.92494 3.66779 4.90656 3.59802 4.90634H2.56101C3.26581 2.90103 5.26658 1.46022 7.63373 1.46022C10.5918 1.46022 12.9809 3.70969 12.9809 6.49953C12.9809 9.28937 10.5918 11.5398 7.63373 11.5398C5.87092 11.5398 4.22322 10.7203 3.22617 9.34926C3.14971 9.24457 3.03236 9.17274 2.89984 9.14954C2.76732 9.12634 2.63045 9.15365 2.51925 9.22548C2.46387 9.2612 2.41652 9.30689 2.37993 9.35993C2.34333 9.41296 2.31822 9.47229 2.30602 9.53451C2.29382 9.59674 2.29479 9.66061 2.30886 9.72248C2.32293 9.78435 2.34983 9.84299 2.38801 9.89502C3.57429 11.5263 5.53637 12.5 7.63373 12.5C11.142 12.5 14 9.80832 14 6.49953C14 3.19075 11.142 0.5 7.63373 0.5ZM7.28078 3.45944C7.21392 3.45969 7.14778 3.47235 7.08611 3.49671C7.02445 3.52106 6.96848 3.55663 6.92139 3.60139C6.87431 3.64615 6.83703 3.69921 6.81169 3.75756C6.78635 3.8159 6.77344 3.87838 6.7737 3.94143V6.91119C6.77364 6.98933 6.79381 7.0663 6.83245 7.13542C6.87109 7.20455 6.92703 7.26373 6.99542 7.30784L8.70853 8.4106C8.81985 8.48234 8.95681 8.50951 9.08934 8.48612C9.22187 8.46274 9.33916 8.39073 9.41545 8.28588C9.49121 8.18096 9.51983 8.05202 9.49505 7.92725C9.47027 7.80248 9.3941 7.69205 9.28322 7.6201L7.79182 6.65613V3.94143C7.79209 3.87807 7.77905 3.81528 7.75346 3.75669C7.72787 3.6981 7.69023 3.64487 7.64273 3.60006C7.59522 3.55526 7.53878 3.51976 7.47666 3.49563C7.41453 3.47149 7.34796 3.4592 7.28078 3.45944Z" fill="#00B087"/>
</svg>
