<svg width="13" height="12" viewBox="0 0 13 12" fill="none" xmlns="http://www.w3.org/2000/svg">
<path d="M5.77441 0C6.0365 0 6.24797 0.211562 6.24805 0.473633C6.24805 0.73577 6.03655 0.947266 5.77441 0.947266H2.58594C1.82793 0.947266 1.20996 1.56522 1.20996 2.32324V9.67773C1.2102 10.4355 1.82807 11.0527 2.58594 11.0527H9.93945C10.6973 11.0527 11.3152 10.4356 11.3154 9.67773V6.24609C11.3155 5.98402 11.527 5.77246 11.7891 5.77246C12.0511 5.7725 12.2626 5.98405 12.2627 6.24609V9.67773C12.2625 10.958 11.2197 12 9.93945 12H2.58594C1.30565 12 0.26293 10.958 0.262695 9.67773V2.32324C0.262695 1.04281 1.30551 0 2.58594 0H5.77441ZM8.64258 1.08887C8.87017 0.863125 9.23715 0.863125 9.46289 1.08887L11.1084 2.73438C11.334 2.96192 11.3339 3.328 11.1084 3.55371L5.97852 8.68359C5.84412 8.81734 5.65492 8.87793 5.46875 8.84473L4.06934 8.59863C3.83143 8.55781 3.64317 8.36965 3.60059 8.12988L3.35449 6.73047C3.32135 6.54436 3.38131 6.35505 3.51562 6.2207L8.64551 1.09082L8.64258 1.08887Z" fill="#606060"/>
</svg>
