<svg width="63" height="62" viewBox="0 0 63 62" fill="none" xmlns="http://www.w3.org/2000/svg">
<rect opacity="0.08" x="0.25" width="62" height="62" rx="3" fill="#00BC44"/>
<path d="M41.8494 35.5821C42.7785 35.2645 43.5559 34.6352 44.0543 33.8023C44.5794 32.9173 44.7373 31.8786 44.5014 30.8819C44.3333 30.1807 44.5117 29.5275 45.0163 29.0001C45.7362 28.2531 46.13 27.2763 46.13 26.2535C46.13 25.2308 45.7362 24.2539 45.0163 23.5069C44.5076 22.9795 44.3291 22.3303 44.5014 21.6252C44.7373 20.6284 44.5794 19.5896 44.0543 18.7047C43.5292 17.8198 42.6842 17.1646 41.6812 16.869C40.9715 16.6593 40.4834 16.1839 40.268 15.4927C39.9645 14.5099 39.2917 13.6929 38.3831 13.1815C37.4744 12.6702 36.4079 12.5163 35.3844 12.7461C34.6645 12.9099 33.9938 12.7361 33.4523 12.2447C32.6852 11.5435 31.6822 11.16 30.6321 11.16C29.5819 11.16 28.5789 11.5435 27.8118 12.2447C27.2703 12.7401 26.6037 12.9139 25.8797 12.7501C24.8562 12.5203 23.7896 12.6742 22.881 13.1855C21.9724 13.6969 21.2996 14.5199 20.9961 15.4967C20.7807 16.1879 20.2926 16.6632 19.5829 16.873C18.5737 17.1686 17.7349 17.8239 17.2098 18.7087C16.6847 19.5937 16.5268 20.6324 16.7627 21.6291C16.9309 22.3303 16.7524 22.9835 16.2437 23.5109C15.5238 24.2579 15.13 25.2347 15.13 26.2575C15.13 27.2802 15.5238 28.2571 16.2437 29.0041C16.7524 29.5315 16.9309 30.1807 16.7627 30.8858C16.5268 31.8826 16.6847 32.9214 17.2098 33.8063C17.7041 34.6392 18.4856 35.2685 19.4147 35.5861L15.9443 48.2027C15.8499 48.5503 15.9504 48.9239 16.213 49.1796C16.4755 49.4353 16.8529 49.5371 17.2098 49.4452L22.3764 48.1468L26.1894 51.7884C26.3883 51.9781 26.6509 52.08 26.9196 52.08C27.0098 52.08 27.1042 52.07 27.1923 52.044C27.5492 51.9462 27.8282 51.6765 27.9225 51.3289L30.632 41.4748L33.3415 51.3289C33.4359 51.6765 33.7148 51.9482 34.0717 52.044C34.162 52.07 34.2563 52.08 34.3445 52.08C34.6132 52.08 34.8757 51.9781 35.0747 51.7884L38.8876 48.1468L44.0543 49.4452C44.4112 49.5371 44.7948 49.4353 45.0511 49.1796C45.3136 48.9239 45.4141 48.5503 45.3198 48.2027L41.8493 35.5861L41.8494 35.5821ZM19.0148 32.7895C18.7523 32.3501 18.6743 31.8327 18.7933 31.3433C19.1194 29.989 18.7461 28.6326 17.7698 27.6199C17.4129 27.2523 17.2181 26.7649 17.2181 26.2595C17.2181 25.7541 17.4129 25.2668 17.7698 24.8992C18.7461 23.8864 19.1194 22.5261 18.7933 21.1758C18.6723 20.6804 18.7523 20.169 19.0148 19.7295C19.2774 19.2901 19.6917 18.9685 20.1901 18.8187C21.5561 18.4152 22.5735 17.4224 22.9878 16.094C23.1395 15.6086 23.4718 15.1991 23.923 14.9494C24.3743 14.6937 24.8994 14.6178 25.408 14.7337C26.7986 15.0513 28.1913 14.6877 29.2312 13.7369C29.6086 13.3893 30.1091 13.1995 30.628 13.1995C31.1469 13.1995 31.6474 13.3893 32.0248 13.7369C33.0647 14.6877 34.4615 15.0513 35.848 14.7337C36.3567 14.6158 36.8818 14.6937 37.333 14.9494C37.7842 15.2051 38.1145 15.6086 38.2683 16.094C38.6826 17.4244 39.702 18.4152 41.0659 18.8187C41.5643 18.9665 41.9848 19.2901 42.2412 19.7295C42.4976 20.169 42.5817 20.6864 42.4627 21.1758C42.1366 22.5301 42.5099 23.8865 43.4862 24.8992C43.8431 25.2667 44.038 25.7541 44.038 26.2595C44.038 26.7649 43.8431 27.2523 43.4862 27.6199C42.5099 28.6327 42.1366 29.993 42.4627 31.3433C42.5837 31.8387 42.5038 32.3501 42.2412 32.7895C41.9787 33.229 41.5643 33.5506 41.0659 33.7004C39.6999 34.1039 38.6825 35.0967 38.2683 36.4251C38.1165 36.9105 37.7842 37.32 37.333 37.5697C36.8818 37.8254 36.3505 37.9013 35.848 37.7854C34.4574 37.4678 33.0647 37.8314 32.0248 38.7822C31.6474 39.1298 31.1469 39.3195 30.628 39.3195C30.1091 39.3195 29.6086 39.1298 29.2312 38.7822C28.4374 38.0551 27.4344 37.6715 26.3843 37.6715C26.0582 37.6715 25.7341 37.7075 25.4018 37.7834C24.8931 37.8953 24.368 37.8233 23.9168 37.5676C23.4656 37.312 23.1354 36.9084 22.9816 36.423C22.5672 35.0926 21.5478 34.1019 20.1839 33.6984C19.6855 33.5506 19.265 33.227 19.0086 32.7875L19.0148 32.7895ZM26.3764 49.1234L23.4208 46.2948C23.1583 46.0452 22.785 45.9473 22.4342 46.0392L18.4223 47.046L21.1051 37.2899C21.4415 38.1449 22.065 38.86 22.8896 39.3255C23.7982 39.8368 24.8648 39.9907 25.8882 39.7609C26.6082 39.5971 27.2789 39.7709 27.8204 40.2623C28.0768 40.492 28.3557 40.6918 28.6551 40.8496L26.3825 49.1195L26.3764 49.1234ZM38.8407 46.0392C38.4879 45.9513 38.1105 46.0491 37.8541 46.2948L34.8985 49.1234L32.6259 40.8534C32.9254 40.6956 33.2085 40.4958 33.4607 40.2661C34.0022 39.7708 34.6688 39.597 35.3928 39.7648C36.4163 39.9945 37.4829 39.8407 38.3915 39.3293C39.216 38.8699 39.8416 38.1527 40.1759 37.2938L42.8588 47.0498L38.8468 46.043L38.8407 46.0392ZM21.7615 25.2323L25.7673 28.5962L24.5592 33.6121C24.4648 34.0116 24.6227 34.4251 24.9591 34.6608C25.1437 34.7887 25.3529 34.8546 25.5683 34.8546C25.7529 34.8546 25.9416 34.8086 26.1098 34.7068L30.6365 32.038L35.1633 34.7068C35.5202 34.9165 35.9714 34.9005 36.3139 34.6608C36.6503 34.4211 36.8123 34.0056 36.7139 33.6121L35.5058 28.5962L39.5116 25.2323C39.8274 24.9667 39.9525 24.5412 39.8213 24.1536C39.69 23.7641 39.3372 23.4944 38.9188 23.4585L33.6475 23.029L31.6005 18.2788C31.4385 17.9053 31.0591 17.6596 30.6407 17.6596C30.2202 17.6596 29.8428 17.9053 29.6808 18.2788L27.6338 23.029L22.3625 23.4585C21.9482 23.4944 21.5913 23.7661 21.46 24.1536C21.3288 24.5432 21.4539 24.9666 21.7698 25.2323L21.7615 25.2323ZM28.4295 24.9906C28.813 24.9607 29.1494 24.719 29.3012 24.3714L30.6344 21.2772L31.9676 24.3714C32.1194 24.719 32.4558 24.9547 32.8394 24.9906L36.2729 25.2723L33.6639 27.4656C33.3706 27.7113 33.2434 28.0949 33.3337 28.4624L34.1213 31.7304L31.1759 29.9925C30.8457 29.7988 30.4293 29.7988 30.0991 29.9925L27.1537 31.7304L27.9413 28.4624C28.0316 28.0948 27.9003 27.7113 27.6111 27.4656L25.0021 25.2723L28.4356 24.9906H28.4295Z" fill="#22AD5C"/>
</svg>
