<svg width="18" height="20" viewBox="0 0 18 20" fill="none" xmlns="http://www.w3.org/2000/svg">
<path d="M17.7049 6.64432C16.4478 1.87594 11.5257 -0.951325 6.71009 0.293517C1.89451 1.55946 -0.960741 6.43333 0.296423 11.1806C0.893043 13.4382 2.32067 15.2527 4.15314 16.4132L1.78797 20L11.2913 17.5314C16.0855 16.2866 18.9621 11.4127 17.7049 6.64432ZM10.0341 12.9529C6.30524 11.1384 5.34638 7.88916 5.19723 6.68652C5.04807 5.50497 7.13624 4.45002 7.13624 4.45002L8.45733 6.64432C8.45733 6.64432 7.05101 7.38279 7.24278 7.80477C8.26556 9.97797 9.62926 10.7586 9.62926 10.7586C10.0554 10.9274 11.0356 9.85137 11.0356 9.85137L12.9107 11.6026C12.9107 11.6026 11.3552 13.5859 10.0341 12.9529Z" fill="white"/>
</svg>
