<svg width="51" height="50" viewBox="0 0 51 50" fill="none" xmlns="http://www.w3.org/2000/svg">
<rect opacity="0.08" x="0.5" width="50" height="50" rx="3" fill="#13C296"/>
<path d="M37.0618 40H24.1715C16.4655 40 10.207 33.7418 10.207 26.0362V23.1722C10.207 15.4666 16.4669 9.20703 24.1715 9.20703H27.0355C34.7415 9.20703 41 15.4652 41 23.1709V36.0606C41 38.237 39.2383 39.9986 37.0618 39.9986V40ZM24.1715 11.3553C17.6552 11.3553 12.3554 16.6549 12.3554 23.1709V26.0348C12.3554 32.5508 17.6552 37.8503 24.1715 37.8503H37.0618C38.05 37.8503 38.8516 37.0488 38.8516 36.0606V23.1709C38.8516 16.6549 33.5518 11.3553 27.0355 11.3553H24.1715Z" fill="#11E2FF"/>
<path d="M25.6042 29.2586C25.0175 29.2586 24.53 28.7712 24.53 28.1844C24.53 25.7072 25.9627 24.6183 27.1081 23.7442C28.1111 22.9856 28.8268 22.4404 28.8268 21.0226C28.8268 19.5335 27.4236 17.8001 25.6042 17.8001C23.7848 17.8001 22.3817 19.2462 22.3817 21.0226C22.3817 21.6093 21.8942 22.0967 21.3075 22.0967C20.7207 22.0967 20.2333 21.6093 20.2333 21.0226C20.2333 18.0579 22.6395 15.6519 25.6042 15.6519C28.569 15.6519 30.9752 18.1586 30.9752 21.0226C30.9752 23.4998 29.5425 24.5887 28.3971 25.4628C27.3941 26.2214 26.6784 26.7666 26.6784 28.1844C26.6784 28.7712 26.191 29.2586 25.6042 29.2586Z" fill="#11E2FF"/>
<path d="M27.394 32.6381C27.394 35.0254 23.8143 35.0254 23.8143 32.6381C23.8143 30.2508 27.394 30.2508 27.394 32.6381Z" fill="#11E2FF"/>
</svg>
