<svg width="51" height="50" viewBox="0 0 51 50" fill="none" xmlns="http://www.w3.org/2000/svg">
<rect opacity="0.08" x="0.5" width="50" height="50" rx="3" fill="#13C296"/>
<path d="M29.5863 37.9341C24.4129 39.8528 18.546 38.5728 14.6442 34.6711C11.9706 31.9976 10.4963 28.4433 10.4963 24.6605C10.4963 20.9148 11.9459 17.3932 14.5731 14.728V15.6729C14.5731 16.2774 15.0627 16.767 15.6672 16.767C16.2716 16.767 16.7612 16.2774 16.7612 15.6729V12.0774C16.7612 11.473 16.2716 10.9834 15.6672 10.9834H12.0717C11.4672 10.9834 10.9776 11.473 10.9776 12.0774C10.9776 12.6819 11.4672 13.1715 12.0717 13.1715H13.0317C9.98753 16.2513 8.30823 20.3239 8.30823 24.6588C8.30823 29.0256 10.0081 33.1294 13.0961 36.2162C16.2114 39.3315 20.41 40.9999 24.6794 40.9999C26.5844 40.9999 28.5031 40.6689 30.3467 39.9852C30.9129 39.7746 31.2028 39.1455 30.9923 38.5793C30.7816 38.0118 30.1524 37.7236 29.5863 37.9341Z" fill="#11E2FF"/>
<path d="M37.2365 36.1482H36.2765C39.3207 33.0684 41 28.9957 41 24.6608C41 20.2941 39.3001 16.1903 36.2121 13.1035C31.7088 8.59879 24.938 7.11894 18.9618 9.33574C18.3957 9.54635 18.1057 10.1754 18.3163 10.7416C18.5269 11.3091 19.156 11.5963 19.7222 11.3871C24.8955 9.4684 30.7638 10.7498 34.6642 14.6501C37.3378 17.3237 38.8122 20.8779 38.8122 24.6607C38.8122 28.4064 37.3626 31.928 34.7353 34.5933V33.6483C34.7353 33.0438 34.2457 32.5543 33.6413 32.5543C33.0368 32.5543 32.5472 33.0438 32.5472 33.6483V37.2438C32.5472 37.8483 33.0368 38.3378 33.6413 38.3378H37.2367C37.8412 38.3378 38.3308 37.8483 38.3308 37.2438C38.3308 36.6393 37.8412 36.1497 37.2367 36.1497L37.2365 36.1482Z" fill="#11E2FF"/>
<path d="M24.6548 14.8145C19.2255 14.8145 14.8084 19.2316 14.8084 24.6609C14.8084 30.0902 19.2255 34.5073 24.6548 34.5073C30.0841 34.5073 34.5013 30.0902 34.5013 24.6609C34.5013 19.2316 30.0841 14.8145 24.6548 14.8145ZM32.2256 23.5668H29.0023C28.9025 21.4006 28.5072 19.3027 27.8303 17.6999C30.1524 18.7639 31.8482 20.952 32.2256 23.5668ZM24.6548 32.3192C24.0681 32.3192 22.7006 30.0245 22.4954 25.7549H26.8142C26.6091 30.0244 25.2415 32.3192 24.6548 32.3192ZM22.4954 23.5668C22.7006 19.2974 24.0681 17.0026 24.6548 17.0026C25.2415 17.0026 26.6091 19.2973 26.8142 23.5668H22.4954ZM21.478 17.6999C20.801 19.3013 20.4058 21.4005 20.306 23.5668H17.0826C17.4587 20.9534 19.1558 18.7653 21.478 17.6999ZM17.0825 25.7549H20.3059C20.4057 27.9212 20.8009 30.0191 21.4779 31.6218C19.1558 30.5579 17.4599 28.3698 17.0825 25.7549ZM27.8301 31.6218C28.5071 30.0204 28.9023 27.9213 29.0021 25.7549H32.2255C31.8494 28.3683 30.1523 30.5565 27.8301 31.6218Z" fill="#11E2FF"/>
</svg>
